<?xml version="1.0" standalone="no"?>
<!DOCTYPE svg PUBLIC "-//W3C//DTD SVG 20010904//EN"
 "http://www.w3.org/TR/2001/REC-SVG-20010904/DTD/svg10.dtd">
<svg version="1.0" xmlns="http://www.w3.org/2000/svg"
 width="1280.000000pt" height="748.000000pt" viewBox="0 0 1280.000000 748.000000"
 preserveAspectRatio="xMidYMid meet">
<metadata>
Created by potrace 1.15, written by Peter Selinger 2001-2017
</metadata>
<g transform="translate(0.000000,748.000000) scale(0.100000,-0.100000)"
fill="#000000" stroke="none">
<path d="M6295 7433 c-44 -26 -196 -100 -337 -165 -299 -137 -340 -159 -471
-245 -228 -150 -406 -392 -478 -648 -45 -159 -26 -362 50 -530 17 -37 31 -69
31 -70 0 -2 -22 5 -48 15 -127 48 -321 64 -454 35 -155 -32 -303 -121 -436
-259 -128 -134 -159 -186 -305 -512 -95 -213 -156 -337 -228 -465 -29 -51 -49
-99 -49 -117 0 -18 18 -61 45 -107 64 -107 123 -226 215 -435 178 -401 245
-504 419 -642 279 -222 606 -241 974 -57 53 27 97 47 97 44 0 -3 -29 -57 -64
-120 -228 -410 -499 -614 -811 -615 -195 0 -426 81 -653 229 -61 40 -103 61
-123 61 -19 0 -67 -23 -132 -62 -618 -374 -1105 -264 -1450 327 -26 44 -47 82
-47 85 0 4 30 -9 67 -27 95 -46 171 -63 285 -63 126 0 227 31 331 100 191 127
245 253 312 725 39 274 58 382 80 465 24 90 22 94 -68 188 -126 132 -160 188
-269 447 -32 77 -74 167 -93 202 -80 141 -200 262 -323 324 -225 112 -503 62
-696 -126 l-44 -42 -36 93 c-86 217 -231 397 -376 468 -88 43 -174 60 -248 51
-29 -4 -110 -24 -180 -45 -228 -68 -313 -72 -562 -24 -155 30 -165 30 -195 -1
-38 -37 -34 -80 12 -119 162 -137 249 -249 348 -446 209 -417 392 -1132 545
-2122 83 -540 130 -926 235 -1905 64 -600 114 -1040 136 -1197 9 -60 18 -85
35 -103 l23 -23 5041 0 5041 0 23 23 c17 18 26 43 35 103 22 154 71 586 136
1194 117 1095 172 1526 270 2125 203 1229 451 1972 752 2255 38 36 86 79 106
96 46 39 50 82 12 119 -30 31 -40 31 -195 1 -249 -48 -334 -44 -562 24 -70 21
-151 41 -180 45 -74 9 -160 -8 -248 -51 -145 -71 -290 -251 -376 -468 l-36
-93 -44 42 c-193 188 -471 238 -696 126 -123 -62 -243 -183 -323 -324 -19 -35
-61 -125 -93 -202 -109 -259 -143 -315 -269 -447 -87 -90 -92 -102 -73 -168
21 -73 41 -189 80 -457 47 -319 74 -435 130 -550 30 -61 55 -95 99 -135 128
-115 234 -160 397 -166 127 -5 199 10 306 61 38 18 68 31 68 28 0 -9 -64 -118
-111 -187 -265 -394 -611 -525 -1029 -392 -122 39 -230 89 -357 166 -65 39
-113 62 -132 62 -20 0 -62 -21 -123 -61 -170 -111 -368 -194 -520 -219 -374
-60 -687 141 -950 612 -31 57 -57 106 -58 111 0 4 44 -15 98 -42 367 -184 694
-165 973 57 174 138 241 241 419 642 92 209 151 328 215 435 27 46 45 89 45
107 0 18 -20 66 -49 117 -73 130 -143 272 -232 474 -142 320 -192 400 -336
538 -98 93 -208 163 -321 202 -154 53 -374 48 -533 -13 -27 -10 -49 -17 -49
-15 0 1 14 33 31 70 76 168 95 371 50 530 -50 179 -160 364 -297 500 -141 140
-265 215 -639 386 -132 61 -283 135 -337 165 -53 30 -107 54 -120 54 -12 0
-59 -21 -103 -47z"/>
</g>
</svg>
